<svg width="1120" height="125" viewBox="0 0 1120 125" fill="none" xmlns="http://www.w3.org/2000/svg">
<g clip-path="url(#clip0_7262_36522)">
<rect x="-0.843071" y="-0.157097" width="514.68" height="267.897" rx="87.5" transform="matrix(-0.74885 -0.662739 -0.937292 0.348544 1325.38 265.218)" stroke="white" stroke-opacity="0.3"/>
<rect x="-0.847731" y="-0.123629" width="525.124" height="262.078" rx="87.5" transform="matrix(-0.773294 -0.634048 -0.922167 0.386791 1331.09 272.613)" stroke="white" stroke-opacity="0.3"/>
<rect x="-0.850212" y="-0.0900872" width="535.147" height="256.256" rx="87.5" transform="matrix(-0.79556 -0.605875 -0.904864 0.4257 1338.35 279.968)" stroke="white" stroke-opacity="0.3"/>
<rect x="-0.850667" y="-0.0678493" width="541.53" height="252.42" rx="87.5" transform="matrix(-0.809218 -0.587508 -0.892115 0.451809 1346.73 289.987)" stroke="white" stroke-opacity="0.3"/>
<rect x="-0.849642" y="-0.035529" width="550.419" height="246.902" rx="87.5" transform="matrix(-0.827658 -0.561232 -0.871625 0.490174 1356.69 297.424)" stroke="white" stroke-opacity="0.3"/>
<rect x="-0.846955" y="-0.00603747" width="558.113" height="241.949" rx="87.5" transform="matrix(-0.843165 -0.537654 -0.850745 0.525579 1367.92 305.358)" stroke="white" stroke-opacity="0.3"/>
<rect x="-0.842669" y="0.0229137" width="565.269" height="237.187" rx="87.5" transform="matrix(-0.857291 -0.514832 -0.828046 0.56066 1380.42 313.178)" stroke="white" stroke-opacity="0.3"/>
<rect x="-0.834603" y="0.0604841" width="573.96" height="231.189" rx="87.5" transform="matrix(-0.874179 -0.485604 -0.795028 0.606572 1394.61 318.439)" stroke="white" stroke-opacity="0.3"/>
</g>
<defs>
<clipPath id="clip0_7262_36522">
<rect width="1120" height="125" fill="white"/>
</clipPath>
</defs>
</svg>
