<svg width="22" height="22" viewBox="0 0 22 22" fill="none" xmlns="http://www.w3.org/2000/svg">
<path d="M11.0003 0.666748C5.29199 0.666748 0.666992 5.29175 0.666992 11.0001C0.666992 16.7084 5.29199 21.3334 11.0003 21.3334C16.7087 21.3334 21.3337 16.7084 21.3337 11.0001C21.3337 5.29175 16.7087 0.666748 11.0003 0.666748ZM11.0003 19.3334C6.37533 19.3334 2.66699 15.6251 2.66699 11.0001C2.66699 6.41675 6.37533 2.66675 11.0003 2.66675C15.5837 2.66675 19.3337 6.41675 19.3337 11.0001C19.3337 15.6251 15.5837 19.3334 11.0003 19.3334ZM13.542 15.0001C13.792 15.1667 14.0837 15.1251 14.2503 14.8751L15.042 13.8334C15.2087 13.5834 15.167 13.2917 14.917 13.1251L12.167 11.0834V5.16675C12.167 4.91675 11.917 4.66675 11.667 4.66675H10.3337C10.042 4.66675 9.83366 4.91675 9.83366 5.16675V12.0417C9.83366 12.1667 9.87533 12.3334 10.0003 12.4167L13.542 15.0001Z" fill="#5E9CB9"/>
</svg>
