<svg width="150" height="150" viewBox="0 0 150 150" fill="none" xmlns="http://www.w3.org/2000/svg">
<rect width="150" height="150" rx="75" fill="#9AC0D1"/>
<mask id="mask0_7269_36571" style="mask-type:alpha" maskUnits="userSpaceOnUse" x="0" y="0" width="150" height="150">
<rect width="150" height="150" rx="75" fill="#9AC0D1"/>
</mask>
<g mask="url(#mask0_7269_36571)">
<g opacity="0.2">
<path d="M50.4707 99.2247C30.7765 108 16.4952 126.225 14 148.5C14 155.925 19.6845 162 27.2234 162H122.773C130.315 162 136 155.925 136 148.5C133.502 126.225 119.217 108 99.5273 99.2247C95.0979 108 85.8022 114.75 74.9983 114.75C64.1943 114.75 54.8967 108 50.4707 99.2247Z" fill="#0E0E0E"/>
<path d="M109.123 60.75C109.123 69.7011 105.528 78.2855 99.1283 84.6149C92.7286 90.9442 84.0488 94.5 74.9983 94.5C65.9478 94.5 57.268 90.9442 50.8683 84.6149C44.4687 78.2855 40.8734 69.7011 40.8734 60.75C40.8734 51.7989 44.4687 43.2145 50.8683 36.8851C57.268 30.5558 65.9478 27 74.9983 27C84.0488 27 92.7286 30.5558 99.1283 36.8851C105.528 43.2145 109.123 51.7989 109.123 60.75Z" fill="#0E0E0E"/>
<path d="M74.9983 87.75C66.2828 87.75 57.9747 89.5657 50.4707 92.8125C30.7765 101.331 16.4952 119.792 14 141.75C14 149.209 19.6845 155.25 27.2234 155.25H122.773C130.315 155.25 136 149.209 136 141.75C133.502 119.792 119.217 101.331 99.5273 92.8125C92.0198 89.5657 83.7138 87.75 74.9983 87.75Z" fill="#0E0E0E"/>
</g>
</g>
</svg>
