<svg width="1920" height="346" viewBox="0 0 1920 346" fill="none" xmlns="http://www.w3.org/2000/svg">
<rect width="1920" height="346" fill="#FBFBFB"/>
<rect x="0.856881" y="-0.034695" width="1233.41" height="642.674" rx="87.5" transform="matrix(0.87769 0.479229 0.836072 -0.548619 1214.62 260.754)" stroke="#C4C4C4" stroke-opacity="0.7"/>
<rect x="0.853966" y="-0.0683606" width="1258.41" height="628.745" rx="87.5" transform="matrix(0.895126 0.445813 0.812806 -0.582534 1197.4 246.624)" stroke="#C4C4C4" stroke-opacity="0.7"/>
<rect x="0.848912" y="-0.101612" width="1282.41" height="614.81" rx="87.5" transform="matrix(0.910555 0.413387 0.787268 -0.61661 1176.56 233.42)" stroke="#C4C4C4" stroke-opacity="0.7"/>
<rect x="0.8444" y="-0.123392" width="1297.69" height="605.627" rx="87.5" transform="matrix(0.919778 0.392439 0.769022 -0.639222 1151.73 214.548)" stroke="#C4C4C4" stroke-opacity="0.7"/>
<rect x="0.8362" y="-0.154671" width="1318.96" height="592.418" rx="87.5" transform="matrix(0.9319 0.362715 0.740499 -0.672057 1124.59 202.565)" stroke="#C4C4C4" stroke-opacity="0.7"/>
<rect x="0.82701" y="-0.182823" width="1337.38" height="580.563" rx="87.5" transform="matrix(0.941764 0.336274 0.712255 -0.70192 1094.21 190.093)" stroke="#C4C4C4" stroke-opacity="0.7"/>
<rect x="0.81638" y="-0.210091" width="1354.51" height="569.163" rx="87.5" transform="matrix(0.950449 0.310879 0.682311 -0.731061 1060.95 178.55)" stroke="#C4C4C4" stroke-opacity="0.7"/>
<rect x="0.800147" y="-0.24492" width="1375.32" height="554.804" rx="87.5" transform="matrix(0.960401 0.278623 0.639894 -0.768463 1025.13 173.886)" stroke="#C4C4C4" stroke-opacity="0.7"/>
</svg>
