<svg width="1920" height="496" viewBox="0 0 1920 496" fill="none" xmlns="http://www.w3.org/2000/svg">
<g clip-path="url(#clip0_1_4314)">
<rect x="-0.319207" y="-0.795962" width="930.659" height="484.806" rx="87.5" transform="matrix(0.15818 -0.98741 -0.796595 -0.604514 1661.13 1266.23)" stroke="#C4C4C4" stroke-opacity="0.2"/>
<rect x="-0.349961" y="-0.781958" width="949.529" height="474.293" rx="87.5" transform="matrix(0.120857 -0.99267 -0.820778 -0.571247 1655.39 1282.06)" stroke="#C4C4C4" stroke-opacity="0.2"/>
<rect x="-0.379608" y="-0.766077" width="967.637" height="463.775" rx="87.5" transform="matrix(0.0851386 -0.996369 -0.844354 -0.535785 1651.24 1300.24)" stroke="#C4C4C4" stroke-opacity="0.2"/>
<rect x="-0.398626" y="-0.754543" width="979.17" height="456.845" rx="87.5" transform="matrix(0.062312 -0.998057 -0.859564 -0.511029 1644.07 1322.68)" stroke="#C4C4C4" stroke-opacity="0.2"/>
<rect x="-0.425363" y="-0.736355" width="995.229" height="446.875" rx="87.5" transform="matrix(0.0302459 -0.999542 -0.880972 -0.473168 1642.38 1345.04)" stroke="#C4C4C4" stroke-opacity="0.2"/>
<rect x="-0.448822" y="-0.718282" width="1009.13" height="437.928" rx="87.5" transform="matrix(0.00202925 -0.999998 -0.899672 -0.436565 1641.16 1369.82)" stroke="#C4C4C4" stroke-opacity="0.2"/>
<rect x="-0.470967" y="-0.699147" width="1022.06" height="429.324" rx="87.5" transform="matrix(-0.0248087 -0.999692 -0.917124 -0.398601 1641.33 1396.42)" stroke="#C4C4C4" stroke-opacity="0.2"/>
<rect x="-0.498363" y="-0.672202" width="1037.76" height="418.487" rx="87.5" transform="matrix(-0.0585356 -0.998285 -0.938191 -0.346119 1647.05 1423.12)" stroke="#C4C4C4" stroke-opacity="0.2"/>
</g>
<defs>
<clipPath id="clip0_1_4314">
<rect width="1920" height="496" fill="white"/>
</clipPath>
</defs>
</svg>
