<svg width="1920" height="800" viewBox="0 0 1920 800" fill="none" xmlns="http://www.w3.org/2000/svg">
<g clip-path="url(#clip0_1_8439)">
<rect x="-0.0181773" y="-0.85739" width="930.659" height="484.806" rx="87.5" transform="matrix(0.496052 -0.868293 -0.532407 -0.846488 -22.5828 1267.32)" stroke="#C4C4C4" stroke-opacity="0.2"/>
<rect x="-0.0518928" y="-0.855125" width="949.529" height="474.293" rx="87.5" transform="matrix(0.462978 -0.88637 -0.566764 -0.82388 -33.5223 1280.11)" stroke="#C4C4C4" stroke-opacity="0.2"/>
<rect x="-0.0852351" y="-0.850712" width="967.637" height="463.775" rx="87.5" transform="matrix(0.430856 -0.902421 -0.601326 -0.799004 -43.8198 1295.65)" stroke="#C4C4C4" stroke-opacity="0.2"/>
<rect x="-0.107098" y="-0.846621" width="979.17" height="456.845" rx="87.5" transform="matrix(0.410089 -0.912045 -0.624285 -0.781196 -58.4374 1314.12)" stroke="#C4C4C4" stroke-opacity="0.2"/>
<rect x="-0.13853" y="-0.839025" width="995.229" height="446.875" rx="87.5" transform="matrix(0.380604 -0.924738 -0.657664 -0.753311 -67.8993 1334.44)" stroke="#C4C4C4" stroke-opacity="0.2"/>
<rect x="-0.166853" y="-0.830379" width="1009.13" height="437.928" rx="87.5" transform="matrix(0.354359 -0.935109 -0.688065 -0.725649 -77.7748 1357.2)" stroke="#C4C4C4" stroke-opacity="0.2"/>
<rect x="-0.194321" y="-0.820277" width="1022.06" height="429.324" rx="87.5" transform="matrix(0.329135 -0.944283 -0.717778 -0.696272 -86.9848 1382.15)" stroke="#C4C4C4" stroke-opacity="0.2"/>
<rect x="-0.229457" y="-0.804718" width="1037.76" height="418.487" rx="87.5" transform="matrix(0.297077 -0.954853 -0.75599 -0.654582 -91.047 1409.14)" stroke="#C4C4C4" stroke-opacity="0.2"/>
</g>
<defs>
<clipPath id="clip0_1_8439">
<rect width="1920" height="800" fill="white"/>
</clipPath>
</defs>
</svg>
