<svg width="1920" height="306" viewBox="0 0 1920 306" fill="none" xmlns="http://www.w3.org/2000/svg">
<g clip-path="url(#clip0_7251_36454)">
<path d="M956.708 217.772L955.752 218.067L1492.51 749.961L1493.47 749.666L956.708 217.772ZM978.034 130.854L1274.04 39.4062C1319.94 25.2233 1384.83 41.1427 1418.96 74.9633L1955.71 606.857C1989.84 640.678 1980.3 679.592 1934.39 693.775L1638.39 785.223C1592.48 799.406 1527.6 783.487 1493.47 749.666L1492.51 749.961L1493.33 750.76C1527.78 784.155 1592 799.912 1638.01 786.258L1639.1 785.927L1935.1 694.479C1981.17 680.245 1991.04 641.385 1957.47 607.365L1956.67 606.562L1419.91 74.6681L1419.1 73.8694C1384.37 40.2088 1319.4 24.4684 1273.32 38.7023L977.323 130.15L976.241 130.491C931.097 144.996 921.647 183.512 954.951 217.265L955.752 218.067L956.708 217.772C922.578 183.952 932.126 145.037 978.034 130.854Z" fill="#C4C4C4" fill-opacity="0.2"/>
<path d="M946.582 257.255L945.639 257.59L1515.96 781.646L1516.9 781.311L946.582 257.255ZM964.517 169.313L1246.6 69.2848C1291.89 53.2261 1357.28 66.563 1392.66 99.0732L1962.98 623.129C1998.36 655.64 1990.33 695.013 1945.04 711.071L1662.96 811.1C1617.67 827.158 1552.28 813.822 1516.9 781.311L1515.96 781.646L1516.8 782.413C1552.49 814.484 1617.22 827.685 1662.62 812.152L1663.69 811.776L1945.78 711.748C1991.22 695.631 1999.58 656.3 1964.75 623.567L1963.92 622.795L1393.6 98.739L1392.76 97.9722C1356.78 65.6462 1291.31 52.4918 1245.86 68.6082L963.781 168.637L962.715 169.022C918.204 185.372 910.256 224.343 944.809 256.818L945.639 257.59L946.582 257.255C911.202 224.745 919.232 185.372 964.517 169.313Z" fill="#C4C4C4" fill-opacity="0.2"/>
<path d="M941.544 297.545L940.616 297.919L1543.15 812.926L1544.07 812.552L941.544 297.545ZM956.095 208.477L1223.91 100.463C1268.47 82.4913 1334.2 93.2302 1370.73 124.449L1973.26 639.456C2009.78 670.675 2003.27 710.552 1958.71 728.524L1690.89 836.538C1646.33 854.51 1580.6 843.771 1544.07 812.552L1543.15 812.926L1544.02 813.663C1580.84 844.428 1645.9 855.057 1690.59 837.609L1691.65 837.187L1959.47 729.174C2004.19 711.137 2011.02 671.289 1975.04 639.823L1974.18 639.082L1371.66 124.075L1370.78 123.339C1333.67 92.3292 1267.87 81.777 1223.15 99.8137L955.335 207.827L954.285 208.257C910.509 226.491 904.06 265.96 939.758 297.178L940.616 297.919L941.544 297.545C905.019 266.326 911.534 226.449 956.095 208.477Z" fill="#C4C4C4" fill-opacity="0.2"/>
<path d="M945.321 334.24L944.405 334.641L1567.5 843.014L1568.42 842.613L945.321 334.24ZM957.616 244.37L1215.83 131.4C1259.85 112.14 1325.72 121.152 1362.95 151.527L1986.04 659.899C2023.27 690.274 2017.76 730.51 1973.74 749.77L1715.53 862.74C1671.51 881.999 1605.64 872.988 1568.42 842.613L1567.5 843.014L1568.39 843.73C1605.9 873.641 1671.09 882.56 1715.26 863.824L1716.31 863.372L1974.52 750.402C2018.7 731.073 2024.52 690.857 1987.83 660.22L1986.96 659.498L1363.86 151.126L1362.97 150.409C1325.16 120.261 1259.23 111.439 1215.05 130.767L956.841 243.738L955.804 244.198C912.574 263.699 907.125 303.524 943.529 333.919L944.405 334.641L945.321 334.24C908.091 303.865 913.596 263.629 957.616 244.37Z" fill="#C4C4C4" fill-opacity="0.2"/>
<path d="M949.306 374.961L948.408 375.401L1600.26 873.26L1601.16 872.819L949.306 374.961ZM958.279 283.85L1202.38 164.148C1245.19 143.158 1310.43 149.386 1348.74 177.971L1349.64 178.65L2001.49 676.508C2039.68 705.673 2035.66 746.465 1992.52 767.62L1748.41 887.322C1705.27 908.477 1639.34 901.984 1601.16 872.819L1600.26 873.26L1601.17 873.947C1639.62 902.633 1704.87 909.059 1748.18 888.425L1749.21 887.929L1993.31 768.227C2036.61 746.996 2040.95 706.211 2003.29 676.761L2002.39 676.068L1350.54 178.21L1349.63 177.522C1310.87 148.609 1244.89 142.31 1201.59 163.541L957.484 283.243L956.468 283.748C914.122 305.115 910.146 345.49 947.51 374.708L948.408 375.401L949.306 374.961C911.12 345.797 915.138 305.005 958.279 283.85Z" fill="#C4C4C4" fill-opacity="0.2"/>
<path d="M958.474 414.867L957.595 415.343L1634.52 902.732L1635.4 902.255L958.474 414.867ZM964.345 322.549L1195.46 197.183C1237.37 174.452 1302.52 178.396 1341.62 205.882L1342.54 206.536L2019.46 693.924C2058.45 722 2055.82 763.331 2013.59 786.242L1782.47 911.608C1740.24 934.518 1674.39 930.33 1635.4 902.255L1634.52 902.732L1635.45 903.393C1674.69 930.976 1739.86 935.12 1782.28 912.73L1783.28 912.192L2014.4 786.826C2056.79 763.834 2059.74 722.498 2021.25 694.116L2020.34 693.448L1343.42 206.059L1342.49 205.397C1302.94 177.596 1237.04 173.607 1194.65 196.599L963.533 321.965L962.538 322.512C921.102 345.608 918.5 386.517 956.678 414.675L957.595 415.343L958.474 414.867C919.481 386.791 922.109 345.459 964.345 322.549Z" fill="#C4C4C4" fill-opacity="0.2"/>
<path d="M971.747 454.671L970.889 455.184L1671.34 931.501L1672.2 930.988L971.747 454.671ZM974.479 361.108L1192.77 230.612C1234.01 205.957 1299.65 207.874 1339.39 234.893L2039.84 711.209C2079.26 738.017 2078.36 779.464 2038.06 804.191L2037.11 804.772L1818.81 935.269C1777.57 959.923 1711.93 958.006 1672.2 930.988L1671.34 931.501L1672.29 932.137C1712.25 958.648 1777.22 960.546 1818.66 936.411L1819.64 935.831L2037.93 805.334C2079.32 780.591 2080.86 738.687 2041.63 711.34L2040.7 710.696L1340.25 234.379L1339.3 233.743C1299.02 207.021 1233.33 205.306 1191.94 230.049L973.652 360.546L972.682 361.133C932.241 385.947 931.031 427.408 969.955 454.54L970.889 455.184L971.747 454.671C932.015 427.652 933.238 385.763 974.479 361.108Z" fill="#C4C4C4" fill-opacity="0.2"/>
<path d="M988.19 497.938L987.362 498.498L1716.76 959.288L1717.59 958.727L988.19 497.938ZM986.669 402.681L1188.26 266.131C1228.04 239.184 1293.22 238.143 1333.85 263.806L2063.25 724.595C2103.87 750.258 2104.55 792.905 2064.77 819.852L1863.17 956.402C1823.39 983.348 1758.21 984.389 1717.59 958.727L1716.76 959.288L1717.73 959.891C1758.56 985.027 1823.07 983.997 1863.07 957.57L1864.02 956.936L2065.61 820.386C2105.54 793.343 2105.17 750.665 2065.03 724.646L2064.07 724.034L1334.67 263.245L1333.71 262.641C1292.56 237.305 1227.34 238.553 1187.42 265.596L985.824 402.147L984.888 402.788C945.907 429.861 946.582 472.072 986.407 497.886L987.362 498.498L988.19 497.938C947.569 472.275 946.888 429.628 986.669 402.681Z" fill="#C4C4C4" fill-opacity="0.2"/>
</g>
<defs>
<clipPath id="clip0_7251_36454">
<rect width="1520" height="306" fill="white" transform="translate(400)"/>
</clipPath>
</defs>
</svg>
