<svg width="1120" height="240" viewBox="0 0 1120 240" fill="none" xmlns="http://www.w3.org/2000/svg">
<g clip-path="url(#clip0_7322_36508)">
<rect x="-0.843071" y="-0.157097" width="829.339" height="431.973" rx="87.5" transform="matrix(-0.74885 -0.662739 -0.937292 0.348544 1425.18 250.914)" stroke="#C4C4C4" stroke-opacity="0.3"/>
<rect x="-0.847731" y="-0.123629" width="846.156" height="422.603" rx="87.5" transform="matrix(-0.773294 -0.634048 -0.922167 0.386791 1434.36 262.792)" stroke="#C4C4C4" stroke-opacity="0.3"/>
<rect x="-0.850212" y="-0.0900872" width="862.295" height="413.23" rx="87.5" transform="matrix(-0.79556 -0.605875 -0.904864 0.4257 1446.07 274.606)" stroke="#C4C4C4" stroke-opacity="0.3"/>
<rect x="-0.850667" y="-0.0678493" width="872.574" height="407.053" rx="87.5" transform="matrix(-0.809218 -0.587508 -0.892115 0.451809 1459.54 290.721)" stroke="#C4C4C4" stroke-opacity="0.3"/>
<rect x="-0.849642" y="-0.035529" width="886.886" height="398.168" rx="87.5" transform="matrix(-0.827658 -0.561232 -0.871625 0.490174 1475.56 302.671)" stroke="#C4C4C4" stroke-opacity="0.3"/>
<rect x="-0.846955" y="-0.00603747" width="899.275" height="390.193" rx="87.5" transform="matrix(-0.843165 -0.537654 -0.850745 0.525579 1493.65 315.423)" stroke="#C4C4C4" stroke-opacity="0.3"/>
<rect x="-0.842669" y="0.0229137" width="910.798" height="382.525" rx="87.5" transform="matrix(-0.857291 -0.514832 -0.828046 0.56066 1513.76 327.994)" stroke="#C4C4C4" stroke-opacity="0.3"/>
<rect x="-0.834603" y="0.0604841" width="924.791" height="372.867" rx="87.5" transform="matrix(-0.874179 -0.485604 -0.795028 0.606572 1536.59 336.439)" stroke="#C4C4C4" stroke-opacity="0.3"/>
</g>
<defs>
<clipPath id="clip0_7322_36508">
<rect width="1120" height="240" fill="white"/>
</clipPath>
</defs>
</svg>
